<svg width="76" height="16" viewBox="0 0 76 16" fill="none" xmlns="http://www.w3.org/2000/svg">
<path d="M70.8867 4.85742H67.3867V11.1463H70.8867V4.85742Z" fill="#FF5F00"/>
<path d="M67.6066 8C67.6066 6.72222 68.2066 5.58889 69.1288 4.85556C68.451 4.32222 67.5954 4 66.6621 4C64.451 4 62.6621 5.78889 62.6621 8C62.6621 10.2111 64.451 12 66.6621 12C67.5954 12 68.451 11.6778 69.1288 11.1444C68.2066 10.4222 67.6066 9.27778 67.6066 8Z" fill="#EB001B"/>
<path d="M75.6034 8C75.6034 10.2111 73.8145 12 71.6034 12C70.67 12 69.8145 11.6778 69.1367 11.1444C70.07 10.4111 70.6589 9.27778 70.6589 8C70.6589 6.72222 70.0589 5.58889 69.1367 4.85556C69.8145 4.32222 70.67 4 71.6034 4C73.8145 4 75.6034 5.8 75.6034 8Z" fill="#F79E1B"/>
<path fill-rule="evenodd" clip-rule="evenodd" d="M37.1782 4V4.00349C37.1747 4.00349 36.0743 4 35.7808 5.05153C35.5118 6.01572 34.7538 8.67773 34.7328 8.75109H34.5232C34.5232 8.75109 33.7477 6.02969 33.4752 5.04804C33.1817 3.99651 32.0778 4 32.0778 4H29.5625V12H32.0778V7.24891H32.1826H32.2874L33.7546 12H35.5014L36.9686 7.2524H37.1782V12H39.6935V4H37.1782Z" fill="#4DB45E"/>
<path fill-rule="evenodd" clip-rule="evenodd" d="M46.3649 4C46.3649 4 45.6278 4.06638 45.2819 4.83843L43.5003 8.75109H43.2907V4H40.7754V12H43.1509C43.1509 12 43.923 11.9301 44.2688 11.1616L46.0156 7.24891H46.2252V12H48.7405V4H46.3649Z" fill="#4DB45E"/>
<path fill-rule="evenodd" clip-rule="evenodd" d="M49.8633 7.63477V12.0016H52.3786V9.45136H55.1035C56.2912 9.45136 57.2973 8.69328 57.6711 7.63477H49.8633Z" fill="#4DB45E"/>
<path fill-rule="evenodd" clip-rule="evenodd" d="M55.0989 4H49.5059C49.7853 5.52314 50.9277 6.74585 52.4054 7.1441C52.7408 7.23493 53.0936 7.28384 53.4569 7.28384H57.7679C57.8063 7.10218 57.8238 6.91703 57.8238 6.72489C57.8238 5.21921 56.6045 4 55.0989 4Z" fill="url(#paint0_linear_1_2925)"/>
<path d="M9.39828 4.13754L6.15473 11.8739H4.04584L2.45272 5.70774C2.36103 5.32951 2.26934 5.19198 1.98281 5.03152C1.48997 4.76791 0.69914 4.51576 0 4.36676L0.0458453 4.13754H3.44986C3.88539 4.13754 4.27507 4.42407 4.36676 4.92837L5.2149 9.39828L7.30086 4.13754H9.39828ZM17.6848 9.35244C17.6963 7.31232 14.8653 7.19771 14.8768 6.29226C14.8883 6.01719 15.1519 5.7192 15.7249 5.63897C16.0115 5.60458 16.8023 5.5702 17.6963 5.98281L18.0516 4.34384C17.5702 4.17192 16.9513 4 16.1834 4C14.2006 4 12.8138 5.05444 12.8023 6.55587C12.7908 7.66762 13.7994 8.28653 14.5559 8.66476C15.3352 9.04298 15.5989 9.28367 15.5989 9.62751C15.5874 10.1433 14.9799 10.3725 14.4069 10.384C13.3983 10.3954 12.8138 10.1089 12.3553 9.89112L11.9885 11.5874C12.4585 11.8052 13.318 11.9885 14.212 12C16.3095 12 17.6733 10.957 17.6848 9.35244ZM22.9112 11.8739H24.7564L23.1404 4.13754H21.4327C21.043 4.13754 20.7221 4.3553 20.5845 4.69914L17.5817 11.8625H19.6791L20.0917 10.7049H22.659L22.9112 11.8739ZM20.6762 9.13467L21.7307 6.23496L22.3381 9.13467H20.6762ZM12.2521 4.13754L10.6017 11.8739H8.60745L10.2579 4.13754H12.2521Z" fill="#2660AC"/>
<defs>
<linearGradient id="paint0_linear_1_2925" x1="49.5065" y1="5.64192" x2="57.8238" y2="5.64192" gradientUnits="userSpaceOnUse">
<stop offset="0.3" stop-color="#00B4E6"/>
<stop offset="1" stop-color="#088CCB"/>
</linearGradient>
</defs>
</svg>
